<?xml version="1.0" encoding="utf-8" ?>
<svg baseProfile="full" height="200mm" version="1.1" viewBox="0,0,200,200" width="200mm" xmlns="http://www.w3.org/2000/svg" xmlns:ev="http://www.w3.org/2001/xml-events" xmlns:xlink="http://www.w3.org/1999/xlink"><defs /><rect fill="#1a1a1a" height="200" width="200" x="0" y="0" /><text alignment-baseline="middle" fill="#e1ed5e" style="dominant-baseline: central; font-size:9.0px; font-family:Arial;" text-anchor="middle" x="100.0" y="100.0">2023</text><line stroke="#e1ed5e" stroke-width="0.3" x1="100.0" x2="100.0" y1="15.0" y2="10.0" /><path d="M 100.0 14.0 a86.0,86.0 0 0,1 42.46469731375804,11.215312516191453" fill="none" id="id49" stroke="none" /><text fill="#e1ed5e" style="font-size:6.75px; font-family:Arial;" text-anchor="middle"><textPath startOffset="22.20632615414155" xlink:href="#id49">January</textPath></text><line stroke="#e1ed5e" stroke-width="0.3" x1="143.23703022742887" x2="145.7803849466894" y1="26.81831364943548" y2="22.513508569990506" /><path d="M 143.74570117128098 25.957352633546492 a86.0,86.0 0 0,1 28.547481713284135,27.462654790039103" fill="none" id="id50" stroke="none" /><text fill="#e1ed5e" style="font-size:6.75px; font-family:Arial;" text-anchor="middle"><textPath startOffset="19.985693538727396" xlink:href="#id50">February</textPath></text><line stroke="#e1ed5e" stroke-width="0.3" x1="172.23445277983987" x2="176.4835382374775" y1="55.19839476539836" y2="52.563006222186495" /><path d="M 173.08426987136738 54.67131705675599 a86.0,86.0 0 0,1 12.851231095245387,41.99856678651699" fill="none" id="id51" stroke="none" /><text fill="#e1ed5e" style="font-size:6.75px; font-family:Arial;" text-anchor="middle"><textPath startOffset="22.20632615414155" xlink:href="#id51">March</textPath></text><line stroke="#e1ed5e" stroke-width="0.3" x1="184.98032266829074" x2="189.97916517819016" y1="98.17113171792111" y2="98.06355123074" /><path d="M 185.9800911702706 98.14961562048488 a86.0,86.0 0 0,1 -9.607161424134198,41.387399972396054" fill="none" id="id52" stroke="none" /><text fill="#e1ed5e" style="font-size:6.75px; font-family:Arial;" text-anchor="middle"><textPath startOffset="21.466115282336823" xlink:href="#id52">April</textPath></text><line stroke="#e1ed5e" stroke-width="0.3" x1="174.80103733775053" x2="179.2010983576182" y1="140.37084112569926" y2="142.7455964860345" /><path d="M 175.68104954172406 140.8457921977663 a86.0,86.0 0 0,1 -30.038265399797805,32.042727171017184" fill="none" id="id53" stroke="none" /><text fill="#e1ed5e" style="font-size:6.75px; font-family:Arial;" text-anchor="middle"><textPath startOffset="22.206326154141568" xlink:href="#id53">May</textPath></text><path d="M 116.93607887273984 112.41649034213515 l 11.906775031357228 8.72931439996925 a35.7638823329388,35.7638823329388 0 0,0 -0.36826364827335534,0.49334933764746297 l -11.75475011638878 -8.932976617126027" fill="#ff0801" stroke="none" /><path d="M 112.92097659922987 116.55440617244103 l 21.670055605347173 27.763760696825432 a56.21956442049542,56.21956442049542 0 0,0 -0.7679894251833077,0.5888615424814602 l -21.188937451670373 -28.132661581134265" fill="#a7ff21" stroke="none" /><path d="M 112.04921762599082 117.19931262002967 l 8.228667181503619 11.745776671472578 a35.34134697997591,35.34134697997591 0 0,0 -0.5012465183876038,0.3447619259567704 l -8.025263778493132 -11.885679386794441" fill="#ff0000" stroke="none" /><path d="M 111.7513745106137 117.40417183066458 l 12.71246290042066 18.82757531980956 a43.717488976946235,43.717488976946235 0 0,0 -0.6272945493481249,0.41573662198164935 l -12.38649365233257 -19.04360996288253" fill="#ff950d" stroke="none" /><line stroke="#e1ed5e" stroke-width="0.3" x1="143.8653032363475" x2="146.44561519142675" y1="172.8068346515853" y2="177.08958963109032" /><path d="M 144.38136562736335 173.6633856474863 a86.0,86.0 0 0,1 -40.68145358897372,12.25698825130547" fill="none" id="id54" stroke="none" /><text fill="#e1ed5e" style="font-size:6.75px; font-family:Arial;" text-anchor="middle"><textPath startOffset="21.466115282336833" xlink:href="#id54">June</textPath></text><path d="M 108.92500713936063 119.00905698771935 l 16.060829853142536 34.20739335905135 a58.79015766032824,58.79015766032824 0 0,0 -0.919735634537954,0.4222055196321791 l -15.469626222837164 -34.478785949017606" fill="#83ff25" stroke="none" /><path d="M 108.59647513512805 119.15986991738527 l 15.431073832190116 34.39286017383758 a58.69597950115696,58.69597950115696 0 0,0 -0.9253821568354934,0.40566034308190263 l -14.836771000696867 -34.653385070213936" fill="#85ff25" stroke="none" /><path d="M 107.59598834532513 119.57807347666477 l 22.476005718445307 57.93016937532244 a83.13755190630809,83.13755190630809 0 0,0 -1.33863247964815,0.5061562615748711 l -21.475503018036886 -58.30847388700394" fill="#4cdcff" stroke="none" /><path d="M 107.2578585660854 119.70592522655815 l 17.35489817812208 47.12055528481618 a71.21493026105287,71.21493026105287 0 0,0 -1.1539546551882793,0.41376708361041975 l -16.54122396230407 -47.41230990946656" fill="#39ff88" stroke="none" /><path d="M 106.91757812671514 119.82793768551818 l 12.462847288534569 35.72240962004659 a58.8340205582189,58.8340205582189 0 0,0 -0.9590793319081788,0.32537178173361747 l -11.846098223689163 -35.93164438867833" fill="#83ff25" stroke="none" /><path d="M 106.57524785965236 119.94407469862006 l 11.827675616616729 35.8757648447526 a58.77518251031882,58.77518251031882 0 0,0 -0.9635733703184309,0.30850576453184025 l -11.208380901207358 -36.07404345594415" fill="#84ff25" stroke="none" /><path d="M 105.88484417918355 120.15858648285463 l 17.460422116552913 59.81083246158474 a83.30731915462235,83.30731915462235 0 0,0 -1.3800009429835847,0.3900020509440014 l -16.42829000546472 -60.10252330586726" fill="#4cdaff" stroke="none" /><path d="M 104.83641907484287 120.43548508189849 l 8.699277176980374 36.75735006054212 a58.772744232782024,58.772744232782024 0 0,0 -0.9864861003305969,0.2245210247122421 l -8.065270927256915 -36.901647818832046" fill="#84ff25" stroke="none" /><path d="M 104.13013068566511 120.58985236759428 l 12.390392056995317 61.76955710278282 a84.0,84.0 0 0,0 -1.4201295417131825,0.2721712066061275 l -11.32529490071043 -61.973685507737414" fill="#4dd2ff" stroke="none" /><path d="M 103.7750983002368 120.6578951692458 l 11.226428532659511 61.43267414736255 a83.45002922733454,83.45002922733454 0 0,0 -1.4152768447620327,0.2460640205819112 l -10.167302716425429 -61.61681674646546" fill="#4cd8ff" stroke="none" /><path d="M 103.41894727170886 120.7198165907248 l 10.236929242841239 62.03877378251644 a83.87769217108072,83.87769217108072 0 0,0 -1.4265763565140328,0.22280188786291893 l -9.167517022718688 -62.20579397772646" fill="#4dd3ff" stroke="none" /><line stroke="#e1ed5e" stroke-width="0.3" x1="102.19456741930631" x2="102.32365962044197" y1="184.97166512339345" y2="189.96999836594603" /><path d="M 102.22038585953345 185.97133177190398 a86.0,86.0 0 0,1 -42.740103519485714,-10.115201625700543" fill="none" id="id55" stroke="none" /><text fill="#e1ed5e" style="font-size:6.75px; font-family:Arial;" text-anchor="middle"><textPath startOffset="22.20632615414155" xlink:href="#id55">July</textPath></text><line stroke="#e1ed5e" stroke-width="0.3" x1="58.666819895761336" x2="56.23545636021788" y1="174.27360380694188" y2="178.64263932499728" /><path d="M 58.180547188652646 175.14741091055294 a86.0,86.0 0 0,1 -31.652253787137756,-30.449443065178592" fill="none" id="id56" stroke="none" /><text fill="#e1ed5e" style="font-size:6.75px; font-family:Arial;" text-anchor="middle"><textPath startOffset="22.20632615414155" xlink:href="#id56">August</textPath></text><line stroke="#e1ed5e" stroke-width="0.3" x1="26.63291911575756" x2="22.317208475507996" y1="142.92168965132927" y2="145.44649492493687" /><path d="M 25.769776987707644 143.4266507060508 a86.0,86.0 0 0,1 -11.730757126820373,-40.83630448921669" fill="none" id="id57" stroke="none" /><text fill="#e1ed5e" style="font-size:6.75px; font-family:Arial;" text-anchor="middle"><textPath startOffset="21.46611528233685" xlink:href="#id57">September</textPath></text><line stroke="#e1ed5e" stroke-width="0.3" x1="15.007084014347285" x2="10.007500721073583" y1="101.09737516637583" y2="101.16192664675087" /><path d="M 14.007167355692545 101.11028546245083 a86.0,86.0 0 0,1 10.666146001902534,-42.60595125391555" fill="none" id="id58" stroke="none" /><text fill="#e1ed5e" style="font-size:6.75px; font-family:Arial;" text-anchor="middle"><textPath startOffset="22.20632615414155" xlink:href="#id58">October</textPath></text><line stroke="#e1ed5e" stroke-width="0.3" x1="26.266209847984243" x2="21.928928074336255" y1="57.711370442889674" y2="55.22380399835377" /><path d="M 25.398753493254645 57.213857153982495 a86.0,86.0 0 0,1 29.58750427330803,-30.492523968695096" fill="none" id="id59" stroke="none" /><text fill="#e1ed5e" style="font-size:6.75px; font-family:Arial;" text-anchor="middle"><textPath startOffset="21.46611528233685" xlink:href="#id59">November</textPath></text><line stroke="#e1ed5e" stroke-width="0.3" x1="56.762969772571076" x2="54.21961505331055" y1="26.818313649435495" y2="22.513508569990535" /><path d="M 56.25429882871897 25.957352633546506 a86.0,86.0 0 0,1 42.265352541879196,-11.944610805530505" fill="none" id="id60" stroke="none" /><text fill="#e1ed5e" style="font-size:6.75px; font-family:Arial;" text-anchor="middle"><textPath startOffset="22.20632615414155" xlink:href="#id60">December</textPath></text></svg>