<?xml version="1.0" encoding="utf-8" ?>
<svg baseProfile="full" height="200mm" version="1.1" viewBox="0,0,200,200" width="200mm" xmlns="http://www.w3.org/2000/svg" xmlns:ev="http://www.w3.org/2001/xml-events" xmlns:xlink="http://www.w3.org/1999/xlink"><defs /><rect fill="#1a1a1a" height="200" width="200" x="0" y="0" /><text alignment-baseline="middle" fill="#e1ed5e" style="dominant-baseline: central; font-size:9.0px; font-family:Arial;" text-anchor="middle" x="100.0" y="100.0">2023</text><line stroke="#e1ed5e" stroke-width="0.3" x1="100.0" x2="100.0" y1="15.0" y2="10.0" /><path d="M 100.0 14.0 a86.0,86.0 0 0,1 42.46469731375804,11.215312516191453" fill="none" id="id49" stroke="none" /><text fill="#e1ed5e" style="font-size:6.75px; font-family:Arial;" text-anchor="middle"><textPath startOffset="22.20632615414155" xlink:href="#id49">January</textPath></text><line stroke="#e1ed5e" stroke-width="0.3" x1="143.23703022742887" x2="145.7803849466894" y1="26.81831364943548" y2="22.513508569990506" /><path d="M 143.74570117128098 25.957352633546492 a86.0,86.0 0 0,1 28.547481713284135,27.462654790039103" fill="none" id="id50" stroke="none" /><text fill="#e1ed5e" style="font-size:6.75px; font-family:Arial;" text-anchor="middle"><textPath startOffset="19.985693538727396" xlink:href="#id50">February</textPath></text><line stroke="#e1ed5e" stroke-width="0.3" x1="172.23445277983987" x2="176.4835382374775" y1="55.19839476539836" y2="52.563006222186495" /><path d="M 173.08426987136738 54.67131705675599 a86.0,86.0 0 0,1 12.851231095245387,41.99856678651699" fill="none" id="id51" stroke="none" /><text fill="#e1ed5e" style="font-size:6.75px; font-family:Arial;" text-anchor="middle"><textPath startOffset="22.20632615414155" xlink:href="#id51">March</textPath></text><line stroke="#e1ed5e" stroke-width="0.3" x1="184.98032266829074" x2="189.97916517819016" y1="98.17113171792111" y2="98.06355123074" /><path d="M 185.9800911702706 98.14961562048488 a86.0,86.0 0 0,1 -9.607161424134198,41.387399972396054" fill="none" id="id52" stroke="none" /><text fill="#e1ed5e" style="font-size:6.75px; font-family:Arial;" text-anchor="middle"><textPath startOffset="21.466115282336823" xlink:href="#id52">April</textPath></text><line stroke="#e1ed5e" stroke-width="0.3" x1="174.80103733775053" x2="179.2010983576182" y1="140.37084112569926" y2="142.7455964860345" /><path d="M 175.68104954172406 140.8457921977663 a86.0,86.0 0 0,1 -30.038265399797805,32.042727171017184" fill="none" id="id53" stroke="none" /><text fill="#e1ed5e" style="font-size:6.75px; font-family:Arial;" text-anchor="middle"><textPath startOffset="22.206326154141568" xlink:href="#id53">May</textPath></text><path d="M 116.93607887273984 112.41649034213515 l 6.008759053746073 4.4052522026892 a28.4505994614711,28.4505994614711 0 0,0 -0.2929581709197051,0.39246534448701886 l -5.932039616131275 -4.508030426685534" fill="#ff0300" stroke="none" /><path d="M 112.92097659922987 116.55440617244103 l 10.9358027233146 14.010993574141047 a38.773568075596884,38.773568075596884 0 0,0 -0.5296677511757408,0.4061266454099766 l -10.693006243645366 -14.197159561378395" fill="#ffa20f" stroke="none" /><path d="M 112.04921762599082 117.19931262002967 l 4.152600372217412 5.9275111633603474 a28.237366816950882,28.237366816950882 0 0,0 -0.4004907287050985,0.275461175072802 l -4.049952758889431 -5.998113127798244" fill="#ff0000" stroke="none" /><path d="M 111.7513745106137 117.40417183066458 l 6.415349777512894 9.501343845420442 a32.464390417145765,32.464390417145765 0 0,0 -0.46582582012713664,0.30872395287466897 l -6.250849258645793 -9.610365819386429" fill="#ff4306" stroke="none" /><line stroke="#e1ed5e" stroke-width="0.3" x1="143.8653032363475" x2="146.44561519142675" y1="172.8068346515853" y2="177.08958963109032" /><path d="M 144.38136562736335 173.6633856474863 a86.0,86.0 0 0,1 -40.68145358897372,12.25698825130547" fill="none" id="id54" stroke="none" /><text fill="#e1ed5e" style="font-size:6.75px; font-family:Arial;" text-anchor="middle"><textPath startOffset="21.466115282336833" xlink:href="#id54">June</textPath></text><path d="M 108.92500713936063 119.00905698771935 l 8.105104575889932 17.262775521494305 a40.07081904092257,40.07081904092257 0 0,0 -0.6268831662264449,0.28777131493688995 l -7.806753413896067 -17.39973390676527" fill="#ffb510" stroke="none" /><path d="M 108.59647513512805 119.15986991738527 l 7.787297933656124 17.356371427991345 a40.02329199307836,40.02329199307836 0 0,0 -0.6309945005259099,0.27660944581151947 l -7.48738275847246 -17.487845427097316" fill="#ffb410" stroke="none" /><path d="M 107.59598834532513 119.57807347666477 l 11.342525788644414 29.23448446806963 a52.35774184120834,52.35774184120834 0 0,0 -0.8430338900122999,0.31876328166017887 l -10.837621677871839 -29.42539599983644" fill="#a5ff21" stroke="none" /><path d="M 107.2578585660854 119.70592522655815 l 8.75815670322155 23.779408147002464 a46.34098578705871,46.34098578705871 0 0,0 -0.7509014764034073,0.2692465536433949 l -8.347535666188408 -23.92664224168582" fill="#f2ff19" stroke="none" /><path d="M 106.91757812671514 119.82793768551818 l 6.289381153437368 18.027329118152785 a40.09295447088827,40.09295447088827 0 0,0 -0.6535729433978468,0.22172742755611943 l -5.978138477102294 -18.13291953260703" fill="#ffb510" stroke="none" /><path d="M 106.57524785965236 119.94407469862006 l 5.968841500654133 18.104719897139105 a40.06326182513884,40.06326182513884 0 0,0 -0.656805994877537,0.2102885383100906 l -5.656314160685655 -18.204781282108904" fill="#ffb510" stroke="none" /><path d="M 105.88484417918355 120.15858648285463 l 8.811409403366076 30.18356188969423 a52.44341495484754,52.44341495484754 0 0,0 -0.8687347381403935,0.24551311455522942 l -8.290543497121076 -30.330763797587977" fill="#a4ff21" stroke="none" /><path d="M 104.83641907484287 120.43548508189849 l 4.390093905408158 18.549612249020562 a40.06203134734899,40.06203134734899 0 0,0 -0.6724313725872404,0.15304319115226367 l -4.070142383428055 -18.62243217375051" fill="#ffb510" stroke="none" /><path d="M 104.13013068566511 120.58985236759428 l 6.252816590207091 31.172033108021502 a52.792976636332085,52.792976636332085 0 0,0 -0.8925341156693933,0.1710562875171381 l -5.715314859965994 -31.275046593887108" fill="#9fff22" stroke="none" /><path d="M 103.7750983002368 120.6578951692458 l 5.665421905528504 31.002024982134913 a52.51543365337941,52.51543365337941 0 0,0 -0.8906393194877332,0.15484906197157347 l -5.130933614568721 -31.094952622627492" fill="#a3ff22" stroke="none" /><path d="M 103.41894727170886 120.7198165907248 l 5.166070670562479 31.307893419273594 a52.73125393875635,52.73125393875635 0 0,0 -0.8968434654226616,0.1400685047815917 l -4.6263913415313 -31.392180231402293" fill="#a0ff22" stroke="none" /><path d="M 103.06178313531738 120.77559828337769 l 2.780099724012842 18.864247564624762 a40.068004370014904,40.068004370014904 0 0,0 -0.6832003225287366,0.09468533936696612 l -2.454970810297275 -18.90930746948433" fill="#ffb510" stroke="none" /><path d="M 102.70371172650421 120.8252237178851 l 2.4556487456717684 18.914529237656467 a40.07326996202488,40.07326996202488 0 0,0 -0.6848189360966469,0.08292203611647943 l -2.1297023865237414 -18.953996802498295" fill="#ffb510" stroke="none" /><path d="M 102.34483914955558 120.86867818915974 l 4.528312561669849 40.30122817052418 a61.55483456640933,61.55483456640933 0 0,0 -1.0539577157816904,0.10924702661387564 l -3.833922249282556 -40.37320456559382" fill="#3aff2e" stroke="none" /><path d="M 101.98527174616119 120.90594882070398 l 5.955815238483573 62.71784646211194 a84.0,84.0 0 0,0 -1.4406227290338331,0.12430299088534635 l -4.8753481917081976 -62.81107370527595" fill="#4dd2ff" stroke="none" /><path d="M 101.62511606390274 120.93702456842531 l 1.6785908356158348 21.625961582843487 a42.69100923369025,42.69100923369025 0 0,0 -0.7331413195047259,0.05056171780535395 l -1.3060867553321784 -21.651651645165124" fill="#ffda14" stroke="none" /><path d="M 100.90346689309514 120.98055641714683 l 1.6259717463686036 37.75876262660217 a58.79375529385877,58.79375529385877 0 0,0 -1.0114755826805641,0.03483726420992383 l -0.9757758120133871 -37.781156689238195" fill="#58ff2a" stroke="none" /><line stroke="#e1ed5e" stroke-width="0.3" x1="102.19456741930631" x2="102.32365962044197" y1="184.97166512339345" y2="189.96999836594603" /><path d="M 102.22038585953345 185.97133177190398 a86.0,86.0 0 0,1 -42.740103519485714,-10.115201625700543" fill="none" id="id55" stroke="none" /><text fill="#e1ed5e" style="font-size:6.75px; font-family:Arial;" text-anchor="middle"><textPath startOffset="22.20632615414155" xlink:href="#id55">July</textPath></text><path d="M 100.54218724476979 120.99299961872073 l 1.143994539585178 44.29443363893051 a65.30920417814136,65.30920417814136 0 0,0 -1.1240656671909752,0.01935180985135645 l -0.3813691825015349 -44.30756292606103" fill="#33ff54" stroke="none" /><path d="M 100.18074693466247 120.99922214144158 l 0.19095176668568747 22.1848219690236 a43.18564374487413,43.18564374487413 0 0,0 -0.7433974026962706,0.0 l 0.1909517666856722 -22.1848219690236" fill="#ffe115" stroke="none" /><path d="M 99.81925306533755 120.99922214144158 l -0.43521778252428694 50.5637061685222 a71.56557916226092,71.56557916226092 0 0,0 -1.2317469107342098,-0.02120564011272698 l 1.3055243831511647 -50.54872305113032" fill="#3cffa3" stroke="none" /><path d="M 99.45781275523022 120.99299961872073 l -1.2953727734161373 50.155661906013705 a71.17238694593334,71.17238694593334 0 0,0 -1.2244349964906203,-0.04217201701258571 l 2.1585281215814005 -50.125933090575025" fill="#3bff9e" stroke="none" /><path d="M 99.09653310690486 120.98055641714683 l -1.0907406040523289 25.329477986065974 a46.35295190134532,46.35295190134532 0 0,0 -0.7968556524114913,-0.041188335220069754 l 1.526584324877309 -25.306949844083704" fill="#f2ff19" stroke="none" /><path d="M 98.73552117531835 120.96189622390904 l -1.1404909933267993 18.90648809594594 a39.940855625552004,39.940855625552004 0 0,0 -0.6859123764250674,-0.0473045333735011 l 1.4657661305307967 -18.88405521805615" fill="#ffb310" stroke="none" /><line stroke="#e1ed5e" stroke-width="0.3" x1="58.666819895761336" x2="56.23545636021788" y1="174.27360380694188" y2="178.64263932499728" /><path d="M 58.180547188652646 175.14741091055294 a86.0,86.0 0 0,1 -31.652253787137756,-30.449443065178592" fill="none" id="id56" stroke="none" /><text fill="#e1ed5e" style="font-size:6.75px; font-family:Arial;" text-anchor="middle"><textPath startOffset="22.20632615414155" xlink:href="#id56">August</textPath></text><line stroke="#e1ed5e" stroke-width="0.3" x1="26.63291911575756" x2="22.317208475507996" y1="142.92168965132927" y2="145.44649492493687" /><path d="M 25.769776987707644 143.4266507060508 a86.0,86.0 0 0,1 -11.730757126820373,-40.83630448921669" fill="none" id="id57" stroke="none" /><text fill="#e1ed5e" style="font-size:6.75px; font-family:Arial;" text-anchor="middle"><textPath startOffset="21.46611528233685" xlink:href="#id57">September</textPath></text><line stroke="#e1ed5e" stroke-width="0.3" x1="15.007084014347285" x2="10.007500721073583" y1="101.09737516637583" y2="101.16192664675087" /><path d="M 14.007167355692545 101.11028546245083 a86.0,86.0 0 0,1 10.666146001902534,-42.60595125391555" fill="none" id="id58" stroke="none" /><text fill="#e1ed5e" style="font-size:6.75px; font-family:Arial;" text-anchor="middle"><textPath startOffset="22.20632615414155" xlink:href="#id58">October</textPath></text><line stroke="#e1ed5e" stroke-width="0.3" x1="26.266209847984243" x2="21.928928074336255" y1="57.711370442889674" y2="55.22380399835377" /><path d="M 25.398753493254645 57.213857153982495 a86.0,86.0 0 0,1 29.58750427330803,-30.492523968695096" fill="none" id="id59" stroke="none" /><text fill="#e1ed5e" style="font-size:6.75px; font-family:Arial;" text-anchor="middle"><textPath startOffset="21.46611528233685" xlink:href="#id59">November</textPath></text><line stroke="#e1ed5e" stroke-width="0.3" x1="56.762969772571076" x2="54.21961505331055" y1="26.818313649435495" y2="22.513508569990535" /><path d="M 56.25429882871897 25.957352633546506 a86.0,86.0 0 0,1 42.265352541879196,-11.944610805530505" fill="none" id="id60" stroke="none" /><text fill="#e1ed5e" style="font-size:6.75px; font-family:Arial;" text-anchor="middle"><textPath startOffset="22.20632615414155" xlink:href="#id60">December</textPath></text></svg>