<?xml version="1.0" encoding="utf-8" ?>
<svg baseProfile="full" height="200mm" version="1.1" viewBox="0,0,200,200" width="200mm" xmlns="http://www.w3.org/2000/svg" xmlns:ev="http://www.w3.org/2001/xml-events" xmlns:xlink="http://www.w3.org/1999/xlink"><defs /><rect fill="#1a1a1a" height="200" width="200" x="0" y="0" /><text alignment-baseline="middle" fill="#e1ed5e" style="dominant-baseline: central; font-size:9.0px; font-family:Arial;" text-anchor="middle" x="100.0" y="100.0">2021</text><line stroke="#e1ed5e" stroke-width="0.3" x1="100.0" x2="100.0" y1="15.0" y2="10.0" /><path d="M 100.0 14.0 a86.0,86.0 0 0,1 42.46469731375804,11.215312516191453" fill="none" id="id25" stroke="none" /><text fill="#e1ed5e" style="font-size:6.75px; font-family:Arial;" text-anchor="middle"><textPath startOffset="22.20632615414155" xlink:href="#id25">January</textPath></text><line stroke="#e1ed5e" stroke-width="0.3" x1="143.23703022742887" x2="145.7803849466894" y1="26.81831364943548" y2="22.513508569990506" /><path d="M 143.74570117128098 25.957352633546492 a86.0,86.0 0 0,1 28.547481713284135,27.462654790039103" fill="none" id="id26" stroke="none" /><text fill="#e1ed5e" style="font-size:6.75px; font-family:Arial;" text-anchor="middle"><textPath startOffset="19.985693538727396" xlink:href="#id26">February</textPath></text><line stroke="#e1ed5e" stroke-width="0.3" x1="172.23445277983987" x2="176.4835382374775" y1="55.19839476539836" y2="52.563006222186495" /><path d="M 173.08426987136738 54.67131705675599 a86.0,86.0 0 0,1 12.851231095245387,41.99856678651699" fill="none" id="id27" stroke="none" /><text fill="#e1ed5e" style="font-size:6.75px; font-family:Arial;" text-anchor="middle"><textPath startOffset="22.20632615414155" xlink:href="#id27">March</textPath></text><line stroke="#e1ed5e" stroke-width="0.3" x1="184.98032266829074" x2="189.97916517819016" y1="98.17113171792111" y2="98.06355123074" /><path d="M 185.9800911702706 98.14961562048488 a86.0,86.0 0 0,1 -9.607161424134198,41.387399972396054" fill="none" id="id28" stroke="none" /><text fill="#e1ed5e" style="font-size:6.75px; font-family:Arial;" text-anchor="middle"><textPath startOffset="21.466115282336823" xlink:href="#id28">April</textPath></text><path d="M 119.54520255179757 107.68017299344265 l 50.403889558549736 19.80591351387336 a75.1555749,75.1555749 0 0,0 -0.4834915091891778,1.1999862749574657 l -50.05549543510317 -20.670599156673642" fill="#41ffcf" stroke="none" /><path d="M 119.26925614724726 108.34839909993367 l 17.55161199661218 7.604230317724773 a40.1280789,40.1280789 0 0,0 -0.2800537007334236,0.63144716313608 l -17.418117211147482 -7.905225817353541" fill="#ffc011" stroke="none" /><line stroke="#e1ed5e" stroke-width="0.3" x1="174.80103733775053" x2="179.2010983576182" y1="140.37084112569926" y2="142.7455964860345" /><path d="M 175.68104954172406 140.8457921977663 a86.0,86.0 0 0,1 -30.038265399797805,32.042727171017184" fill="none" id="id29" stroke="none" /><text fill="#e1ed5e" style="font-size:6.75px; font-family:Arial;" text-anchor="middle"><textPath startOffset="22.206326154141568" xlink:href="#id29">May</textPath></text><path d="M 113.20401910651253 116.32954008644616 l 19.806028659768792 24.49431012966924 a52.5,52.5 0 0,0 -0.7076062682066222,0.562165214987185 l -19.381464898844822 -24.83160925866155" fill="#9dff22" stroke="none" /><path d="M 112.04921762599082 117.19931262002967 l 18.073826438986234 25.798968930044513 a52.5,52.5 0 0,0 -0.7446077884427917,0.5121480265872647 l -17.62706176592056 -26.10625774599687" fill="#9dff22" stroke="none" /><path d="M 111.7513745106137 117.40417183066458 l 3.5254123531841124 5.2212515491993745 a27.3,27.3 0 0,0 -0.39172289163804663,0.25961257258128606 l -3.4350147628061016 -5.281162142871979" fill="#ff0000" stroke="none" /><path d="M 111.45004920935366 117.60387380957326 l 34.35014762806101 52.81162142871979 a84.0,84.0 0 0,0 -1.2188727918122781,0.7779422847047646 l -33.4359930342018 -53.39507814224836" fill="#4dd2ff" stroke="none" /><line stroke="#e1ed5e" stroke-width="0.3" x1="143.8653032363475" x2="146.44561519142675" y1="172.8068346515853" y2="177.08958963109032" /><path d="M 144.38136562736335 173.6633856474863 a86.0,86.0 0 0,1 -40.68145358897372,12.25698825130547" fill="none" id="id30" stroke="none" /><text fill="#e1ed5e" style="font-size:6.75px; font-family:Arial;" text-anchor="middle"><textPath startOffset="21.466115282336833" xlink:href="#id30">June</textPath></text><path d="M 110.5260780823613 118.17145234162733 l 15.789117123541937 27.257178512440987 a52.5,52.5 0 0,0 -0.7858780826970023,0.44624208551342887 l -15.317590273923736 -27.524923763749047" fill="#9dff22" stroke="none" /><path d="M 109.57404056367764 118.69057910512821 l 14.478821544449687 28.265762780685392 a52.7583,52.7583 0 0,0 -0.8118399277286008,0.40707339328356035 l -13.990127709038326 -28.510804014878254" fill="#99ff23" stroke="none" /><path d="M 109.2508944713604 118.85261126421891 l 13.876341707040593 28.27891689632836 a52.5,52.5 0 0,0 -0.8147183299994182,0.39111430875109987 l -13.387510709040942 -28.51358548157902" fill="#9dff22" stroke="none" /><path d="M 108.92500713936063 119.00905698771935 l 13.387510709040942 28.51358548157902 a52.5,52.5 0 0,0 -0.8213300105814514,0.3770323241648141 l -12.894712702692072 -28.739804876077912" fill="#9dff22" stroke="none" /><path d="M 108.59647513512805 119.15986991738527 l 7.752301276858471 17.278370691498036 a39.937799999999996,39.937799999999996 0 0,0 -0.6296466609358837,0.2760185925446063 l -7.453733941264834 -17.409253837337097" fill="#ffbe11" stroke="none" /><path d="M 107.93186726928326 119.44442032107085 l 9.408780954823808 23.06497138485424 a45.9102,45.9102 0 0,0 -0.734298503557272,0.2921925287594522 l -9.010361375224669 -23.22351075801976" fill="#efff19" stroke="none" /><path d="M 107.59598834532513 119.57807347666477 l 13.034716000577921 33.59597408595676 a57.036,57.036 0 0,0 -0.9183604804150937,0.34724535271039053 l -12.454485299402553 -33.81536768877378" fill="#67ff28" stroke="none" /><path d="M 106.57524785965236 119.94407469862006 l 4.998503422907728 15.16148558589097 a36.9642,36.9642 0 0,0 -0.6059992883709268,0.19402183530958447 l -4.7367827894458605 -15.245280267860261" fill="#ff930d" stroke="none" /><path d="M 106.2309692047433 120.05430185196036 l 2.028180476143946 6.527675252813095 a27.8355,27.8355 0 0,0 -0.45878872137945415,0.13822927825036074 l -1.9155167803242459 -6.561619900169182" fill="#ff0901" stroke="none" /><path d="M 105.88484417918355 120.15858648285463 l 8.827266268775327 30.237879724281946 a52.5,52.5 0 0,0 -0.8696720797384856,0.2457780166537024 l -8.305463020932235 -30.385346534274166" fill="#9dff22" stroke="none" /><line stroke="#e1ed5e" stroke-width="0.3" x1="102.19456741930631" x2="102.32365962044197" y1="184.97166512339345" y2="189.96999836594603" /><path d="M 102.22038585953345 185.97133177190398 a86.0,86.0 0 0,1 -42.740103519485714,-10.115201625700543" fill="none" id="id31" stroke="none" /><text fill="#e1ed5e" style="font-size:6.75px; font-family:Arial;" text-anchor="middle"><textPath startOffset="22.20632615414155" xlink:href="#id31">July</textPath></text><line stroke="#e1ed5e" stroke-width="0.3" x1="58.666819895761336" x2="56.23545636021788" y1="174.27360380694188" y2="178.64263932499728" /><path d="M 58.180547188652646 175.14741091055294 a86.0,86.0 0 0,1 -31.652253787137756,-30.449443065178592" fill="none" id="id32" stroke="none" /><text fill="#e1ed5e" style="font-size:6.75px; font-family:Arial;" text-anchor="middle"><textPath startOffset="22.20632615414155" xlink:href="#id32">August</textPath></text><line stroke="#e1ed5e" stroke-width="0.3" x1="26.63291911575756" x2="22.317208475507996" y1="142.92168965132927" y2="145.44649492493687" /><path d="M 25.769776987707644 143.4266507060508 a86.0,86.0 0 0,1 -11.730757126820373,-40.83630448921669" fill="none" id="id33" stroke="none" /><text fill="#e1ed5e" style="font-size:6.75px; font-family:Arial;" text-anchor="middle"><textPath startOffset="21.46611528233685" xlink:href="#id33">September</textPath></text><line stroke="#e1ed5e" stroke-width="0.3" x1="15.007084014347285" x2="10.007500721073583" y1="101.09737516637583" y2="101.16192664675087" /><path d="M 14.007167355692545 101.11028546245083 a86.0,86.0 0 0,1 10.666146001902534,-42.60595125391555" fill="none" id="id34" stroke="none" /><text fill="#e1ed5e" style="font-size:6.75px; font-family:Arial;" text-anchor="middle"><textPath startOffset="22.20632615414155" xlink:href="#id34">October</textPath></text><line stroke="#e1ed5e" stroke-width="0.3" x1="26.266209847984243" x2="21.928928074336255" y1="57.711370442889674" y2="55.22380399835377" /><path d="M 25.398753493254645 57.213857153982495 a86.0,86.0 0 0,1 29.58750427330803,-30.492523968695096" fill="none" id="id35" stroke="none" /><text fill="#e1ed5e" style="font-size:6.75px; font-family:Arial;" text-anchor="middle"><textPath startOffset="21.46611528233685" xlink:href="#id35">November</textPath></text><line stroke="#e1ed5e" stroke-width="0.3" x1="56.762969772571076" x2="54.21961505331055" y1="26.818313649435495" y2="22.513508569990535" /><path d="M 56.25429882871897 25.957352633546506 a86.0,86.0 0 0,1 42.265352541879196,-11.944610805530505" fill="none" id="id36" stroke="none" /><text fill="#e1ed5e" style="font-size:6.75px; font-family:Arial;" text-anchor="middle"><textPath startOffset="22.20632615414155" xlink:href="#id36">December</textPath></text></svg>