<?xml version="1.0" encoding="utf-8" ?>
<svg baseProfile="full" height="200mm" version="1.1" viewBox="0,0,200,200" width="200mm" xmlns="http://www.w3.org/2000/svg" xmlns:ev="http://www.w3.org/2001/xml-events" xmlns:xlink="http://www.w3.org/1999/xlink"><defs /><rect fill="#1a1a1a" height="200" width="200" x="0" y="0" /><text alignment-baseline="middle" fill="#e1ed5e" style="dominant-baseline: central; font-size:9.0px; font-family:Arial;" text-anchor="middle" x="100.0" y="100.0">2023</text><line stroke="#e1ed5e" stroke-width="0.3" x1="100.0" x2="100.0" y1="15.0" y2="10.0" /><path d="M 100.0 14.0 a86.0,86.0 0 0,1 42.46469731375804,11.215312516191453" fill="none" id="id49" stroke="none" /><text fill="#e1ed5e" style="font-size:6.75px; font-family:Arial;" text-anchor="middle"><textPath startOffset="22.20632615414155" xlink:href="#id49">January</textPath></text><line stroke="#e1ed5e" stroke-width="0.3" x1="143.23703022742887" x2="145.7803849466894" y1="26.81831364943548" y2="22.513508569990506" /><path d="M 143.74570117128098 25.957352633546492 a86.0,86.0 0 0,1 28.547481713284135,27.462654790039103" fill="none" id="id50" stroke="none" /><text fill="#e1ed5e" style="font-size:6.75px; font-family:Arial;" text-anchor="middle"><textPath startOffset="19.985693538727396" xlink:href="#id50">February</textPath></text><line stroke="#e1ed5e" stroke-width="0.3" x1="172.23445277983987" x2="176.4835382374775" y1="55.19839476539836" y2="52.563006222186495" /><path d="M 173.08426987136738 54.67131705675599 a86.0,86.0 0 0,1 12.851231095245387,41.99856678651699" fill="none" id="id51" stroke="none" /><text fill="#e1ed5e" style="font-size:6.75px; font-family:Arial;" text-anchor="middle"><textPath startOffset="22.20632615414155" xlink:href="#id51">March</textPath></text><line stroke="#e1ed5e" stroke-width="0.3" x1="184.98032266829074" x2="189.97916517819016" y1="98.17113171792111" y2="98.06355123074" /><path d="M 185.9800911702706 98.14961562048488 a86.0,86.0 0 0,1 -9.607161424134198,41.387399972396054" fill="none" id="id52" stroke="none" /><text fill="#e1ed5e" style="font-size:6.75px; font-family:Arial;" text-anchor="middle"><textPath startOffset="21.466115282336823" xlink:href="#id52">April</textPath></text><line stroke="#e1ed5e" stroke-width="0.3" x1="174.80103733775053" x2="179.2010983576182" y1="140.37084112569926" y2="142.7455964860345" /><path d="M 175.68104954172406 140.8457921977663 a86.0,86.0 0 0,1 -30.038265399797805,32.042727171017184" fill="none" id="id53" stroke="none" /><text fill="#e1ed5e" style="font-size:6.75px; font-family:Arial;" text-anchor="middle"><textPath startOffset="22.206326154141568" xlink:href="#id53">May</textPath></text><path d="M 116.93607887273984 112.41649034213515 l 5.358140825148033 3.9282589734708626 a27.643861201498147,27.643861201498147 0 0,0 -0.28465112046993574,0.3813366928907698 l -5.289728437983006 -4.019908545870948" fill="#ff0300" stroke="none" /><path d="M 112.92097659922987 116.55440617244103 l 9.7516925713682 12.493906977962247 a36.84907630054356,36.84907630054356 0 0,0 -0.5033781605798665,0.38596890838671283 l -9.53518568229484 -12.659915228176331" fill="#ff900d" stroke="none" /><path d="M 112.04921762599082 117.19931262002967 l 3.702963854247319 5.285690318389652 a27.453717025697692,27.453717025697692 0 0,0 -0.38937621941026623,0.26781651423230973 l -3.6114307502141694 -5.348647621987056" fill="#ff0000" stroke="none" /><path d="M 111.7513745106137 117.40417183066458 l 5.72070659565988 8.472554465331317 a31.22304568715371,31.22304568715371 0 0,0 -0.44801398323511693,0.2969192386324177 l -5.574017913684799 -8.569771725055052" fill="#ff3b05" stroke="none" /><line stroke="#e1ed5e" stroke-width="0.3" x1="143.8653032363475" x2="146.44561519142675" y1="172.8068346515853" y2="177.08958963109032" /><path d="M 144.38136562736335 173.6633856474863 a86.0,86.0 0 0,1 -40.68145358897372,12.25698825130547" fill="none" id="id54" stroke="none" /><text fill="#e1ed5e" style="font-size:6.75px; font-family:Arial;" text-anchor="middle"><textPath startOffset="21.466115282336833" xlink:href="#id54">June</textPath></text><path d="M 108.92500713936063 119.00905698771935 l 7.227497613354162 15.393591496969611 a38.005863133831674,38.005863133831674 0 0,0 -0.5945782089498507,0.2729416935093025 l -6.961451408636892 -15.515720260812989" fill="#ffa00e" stroke="none" /><path d="M 108.59647513512805 119.15986991738527 l 6.944102534765588 15.47705299761938 a37.96348223403606,37.96348223403606 0 0,0 -0.5985201945565242,0.262373664406422 l -6.67666166555131 -15.594291215320256" fill="#ffa00e" stroke="none" /><path d="M 107.59598834532513 119.57807347666477 l 10.114376353723287 26.069024124517597 a48.96237879418411,48.96237879418411 0 0,0 -0.7883637301299655,0.29809170513230604 l -9.664142402833047 -26.239264079756534" fill="#c9ff1d" stroke="none" /><path d="M 107.2578585660854 119.70592522655815 l 7.809838365097874 21.20461420580304 a43.59710687025883,43.59710687025883 0 0,0 -0.7064401276706705,0.2533042958468537 l -7.443678676797468 -21.335906042689853" fill="#ffee16" stroke="none" /><path d="M 106.91757812671514 119.82793768551818 l 5.6083776403282455 16.07536052824998 a38.02560177702249,38.02560177702249 0 0,0 -0.6198721148357507,0.21029427675165793 l -5.330835792555267 -16.16951779189976" fill="#ffa10e" stroke="none" /><path d="M 106.57524785965236 119.94407469862006 l 5.3225454769323965 16.14437156508263 a37.999124200542276,37.999124200542276 0 0,0 -0.6229660651183329,0.19945406143095373 l -5.043858066723123 -16.233598473173288" fill="#ffa00e" stroke="none" /><path d="M 105.88484417918355 120.15858648285463 l 7.857324953283809 26.915337054283462 a49.03877536853528,49.03877536853528 0 0,0 -0.8123362621444286,0.22957434188961975 l -7.392857523034775 -27.0466001895116" fill="#c8ff1d" stroke="none" /><path d="M 104.83641907484287 120.43548508189849 l 3.9147419908834764 16.541091728445817 a37.9980269567984,37.9980269567984 0 0,0 -0.6377875650046809,0.14515837333702702 l -3.6294342764859335 -16.60602683536053" fill="#ffa00e" stroke="none" /><path d="M 104.13013068566511 120.58985236759428 l 5.575772225924799 27.796778287328287 a49.3504871046386,49.3504871046386 0 0,0 -0.8343343408956279,0.15990216216511455 l -5.096470270457466 -27.88863764784187" fill="#c5ff1e" stroke="none" /><path d="M 103.7750983002368 120.6578951692458 l 5.051979640417623 27.6451783526709 a49.102996004664305,49.102996004664305 0 0,0 -0.832765834803096,0.14478701483267467 l -4.575364834142477 -27.72804394602458" fill="#c8ff1d" stroke="none" /><path d="M 103.41894727170886 120.7198165907248 l 4.606697309369339 27.91792787474323 a49.29544763596285,49.29544763596285 0 0,0 -0.838407903949059,0.13094207186743434 l -4.125453541811763 -27.993088253957772" fill="#c5ff1e" stroke="none" /><path d="M 103.06178313531738 120.77559828337769 l 2.4790752459826444 16.82165886626792 a38.00335323071111,38.00335323071111 0 0,0 -0.6479959157592975,0.08980632937200689 l -2.189150739036516 -16.86183976113253" fill="#ffa00e" stroke="none" /><path d="M 102.70371172650421 120.8252237178851 l 2.189755268719666 16.866496125112565 a38.00804867335823,38.00804867335823 0 0,0 -0.6495260177236493,0.07864855520390043 l -1.8991018279446366 -16.901690209041817" fill="#ffa00e" stroke="none" /><path d="M 102.34483914955558 120.86867818915974 l 4.037994565714406 35.937479608117606 a57.163625934032225,57.163625934032225 0 0,0 -0.9787703117004095,0.10145354475810325 l -3.4187916574083945 -36.00166252133147" fill="#67ff28" stroke="none" /><path d="M 101.98527174616119 120.90594882070398 l 5.310929676313524 55.92686453028964 a77.17846696213877,77.17846696213877 0 0,0 -1.3236315916386179,0.11420850327785405 l -4.347453766933365 -56.00999728584616" fill="#44ffe5" stroke="none" /><path d="M 101.62511606390274 120.93702456842531 l 1.496835869866557 19.284339179464368 a40.34234358111611,40.34234358111611 0 0,0 -0.6928072101334074,0.047780041474055936 l -1.1646658989542193 -19.30724756545471" fill="#ffc212" stroke="none" /><path d="M 100.90346689309514 120.98055641714683 l 1.449914286265709 33.67030791666365 a54.70151163732067,54.70151163732067 0 0,0 -0.9410734708188632,0.032412473128597984 l -0.8701204637721937 -33.690277188218346" fill="#83ff25" stroke="none" /><line stroke="#e1ed5e" stroke-width="0.3" x1="102.19456741930631" x2="102.32365962044197" y1="184.97166512339345" y2="189.96999836594603" /><path d="M 102.22038585953345 185.97133177190398 a86.0,86.0 0 0,1 -42.740103519485714,-10.115201625700543" fill="none" id="id55" stroke="none" /><text fill="#e1ed5e" style="font-size:6.75px; font-family:Arial;" text-anchor="middle"><textPath startOffset="22.20632615414155" xlink:href="#id55">July</textPath></text><path d="M 100.54218724476979 120.99299961872073 l 1.0201247531262392 39.49830756811597 a60.511478778418656,60.511478778418656 0 0,0 -1.0414898883202324,0.017930192931921815 l -0.3400751749133389 -39.51001523832705" fill="#42ff2d" stroke="none" /><path d="M 100.18074693466247 120.99922214144158 l 0.17027583358910992 19.78268711186861 a40.783419907225266,40.783419907225266 0 0,0 -0.7020455365031171,0.0 l 0.1702758335890963 -19.78268711186861" fill="#ffc812" stroke="none" /><path d="M 99.81925306533755 120.99922214144158 l -0.3880931399504118 45.088753912247874 a66.09042410140455,66.09042410140455 0 0,0 -1.1375115896350836,-0.019583293600045897 l 1.164164419478163 -45.075393141368664" fill="#35ff62" stroke="none" /><path d="M 99.45781275523022 120.99299961872073 l -1.155112008809723 44.72489198970148 a65.73980607069458,65.73980607069458 0 0,0 -1.1309740008665574,-0.038953031350816965 l 1.9248063613509234 -44.69838215992457" fill="#34ff5d" stroke="none" /><path d="M 99.09653310690486 120.98055641714683 l -0.9726370633177309 22.586845114419503 a43.60777731400669,43.60777731400669 0 0,0 -0.7496632343011426,-0.038749026254773014 l 1.3612883660323623 -22.56675628140253" fill="#ffef16" stroke="none" /><path d="M 98.73552117531835 120.96189622390904 l -1.0170005649083564 16.859325664574115 a37.88997193642403,37.88997193642403 0 0,0 -0.650692136824561,-0.044875539442398193 l 1.3070554625118473 -16.839321780615432" fill="#ff9f0e" stroke="none" /><path d="M 98.01472825383883 120.90594882070398 l -2.544465114513037 26.794547176191763 a47.91508984001614,47.91508984001614 0 0,0 -0.8204144970087771,-0.08503931708744589 l 3.0053122081274073 -26.746778490648556" fill="#d7ff1c" stroke="none" /><path d="M 97.65516085044442 120.86867818915974 l -4.430983114229052 39.43501228643871 a60.68316778421495,60.68316778421495 0 0,0 -1.0370249904821967,-0.12556928434923906 l 5.109135527762638 -39.35289747336413" fill="#40ff2d" stroke="none" /><path d="M 97.2962882734958 120.8252237178851 l -3.648536515655344 28.10269617006732 a49.338548846636215,49.338548846636215 0 0,0 -0.8412725568720182,-0.11659271068945996 l 4.131737663714193 -28.035728893885253" fill="#c5ff1e" stroke="none" /><path d="M 96.93821686468263 120.77559828337769 l -2.426597976595255 16.46557660321511 a37.643424846357824,37.643424846357824 0 0,0 -0.6402324440984324,-0.09999114072294545 l 2.709666284302205 -16.421367155145056" fill="#ff9b0e" stroke="none" /><path d="M 96.58105272829116 120.7198165907248 l -2.09634969370441 12.704489923843568 a33.87628619840897,33.87628619840897 0 0,0 -0.574527341536693,-0.09988894265879539 l 2.314726006713153 -12.666522402663766" fill="#ff6409" stroke="none" /><path d="M 96.22490169976321 120.6578951692458 l -10.095151494704163 55.24215919944989 a77.15699632920544,77.15699632920544 0 0,0 -1.3044396409162275,-0.24999896177409991 l 11.044558750192087 -55.06020303932731" fill="#44ffe5" stroke="none" /><path d="M 95.86986931433489 120.58985236759428 l -2.068589091861951 10.312493054634333 a31.517916801004446,31.517916801004446 0 0,0 -0.531014670578741,-0.11127928717871167 l 2.245795223870079 -10.27535778672908" fill="#ff4006" stroke="none" /><path d="M 95.51606077576429 120.51570834832081 l -5.199738002799181 23.79075697023773 a45.352359074937056,45.352359074937056 0 0,0 -0.7612282262578601,-0.17325306594995674 l 5.608486378449904 -23.697727170710085" fill="#f8ff18" stroke="none" /><path d="M 95.16358092515715 120.4354850818985 l -6.4803996507738395 27.381851807875456 a49.138254886581045,49.138254886581045 0 0,0 -0.8214201414945314,-0.20188508572660388 l 6.950773077011582 -27.26624546383482" fill="#c7ff1e" stroke="none" /><path d="M 94.81253420990036 120.34920634021253 l -4.015885835335206 15.753374153895518 a37.25718721904467,37.25718721904467 0 0,0 -0.6200830003341783,-0.16376955623494555 l 4.286459278480874 -15.681913248356992" fill="#ff960d" stroke="none" /><path d="M 94.46302465271185 120.25689768951611 l -7.3929406872530015 27.04690444390223 a49.039090784168074,49.039090784168074 0 0,0 -0.812341487061921,-0.22957581850349332 l 7.8574133424195365 -26.915639832060215" fill="#c8ff1d" stroke="none" /><path d="M 93.76903079525671 120.05430185196036 l -5.052406587766821 16.261111788640793 a38.02793495790908,38.02793495790908 0 0,0 -0.6234383950608641,-0.19960528656286425 l 5.331566327918626 -16.171733655418222" fill="#ffa10e" stroke="none" /><path d="M 93.08242187328487 119.8279376855182 l -20.752734380145377 59.483813056554574 a84.0,84.0 0 0,0 -1.3611217574810934,-0.4880498358401688 l 21.773575698256195 -59.117775679674445" fill="#4dd2ff" stroke="none" /><path d="M 92.7421414339146 119.70592522655815 l -4.645587657388796 12.61330765491909 a34.44161503243281,34.44161503243281 0 0,0 -0.5545588422655154,-0.2096867024309629 l 4.862016720414594 -12.531472702381494" fill="#ff6c0a" stroke="none" /><path d="M 92.40401165467489 119.57807347666478 l -10.145529442042847 26.14931880434305 a49.048505157860504,49.048505157860504 0 0,0 -0.7844932921036932,-0.3121660710244465 l 10.594143810188399 -25.970805888912537" fill="#c8ff1d" stroke="none" /><path d="M 92.06813273071674 119.44442032107085 l -2.6977488453980416 6.613343452397831 a28.142419789694507,28.142419789694507 0 0,0 -0.44696667612697827,-0.18683210687114835 l 2.811186981022482 -6.56592630250671" fill="#ff0b01" stroke="none" /><path d="M 91.7346041902142 119.30500536409082 l -11.006492126690675 25.707224969676737 a48.96433951618516,48.96433951618516 0 0,0 -0.7719562139451326,-0.33840291849160187 l 11.447369015293551 -25.513957497890683" fill="#c9ff1d" stroke="none" /><path d="M 90.7491055286396 118.85261126421891 l -8.351894202560661 17.020517876214104 a39.95922375903851,39.95922375903851 0 0,0 -0.6148889052268328,-0.3083180619650154 l 8.643637015470254 -16.874231973339786" fill="#ffbc11" stroke="none" /><path d="M 90.42595943632237 118.69057910512821 l -6.029934078983259 11.771723668011386 a34.22624599472213,34.22624599472213 0 0,0 -0.5220465697369329,-0.27311009184174506 l 6.231671551246687 -11.666184157224924" fill="#ff6909" stroke="none" /><line stroke="#e1ed5e" stroke-width="0.3" x1="58.666819895761336" x2="56.23545636021788" y1="174.27360380694188" y2="178.64263932499728" /><path d="M 58.180547188652646 175.14741091055294 a86.0,86.0 0 0,1 -31.652253787137756,-30.449443065178592" fill="none" id="id56" stroke="none" /><text fill="#e1ed5e" style="font-size:6.75px; font-family:Arial;" text-anchor="middle"><textPath startOffset="22.20632615414155" xlink:href="#id56">August</textPath></text><path d="M 89.7882731507175 118.34994917583269 l -5.6109495517657 10.082588441963287 a32.5386890313619,32.5386890313619 0 0,0 -0.4870750961798096,-0.2765739514900474 l 5.783673414866717 -9.984511324678605" fill="#ff4f07" stroke="none" /><path d="M 89.4739219176387 118.17145234162733 l -8.49016144022428 14.65679456076661 a37.938254575887946,37.938254575887946 0 0,0 -0.5622668448152777,-0.3321971626713079 l 8.74119615606794 -14.508478825801554" fill="#ff9f0e" stroke="none" /><line stroke="#e1ed5e" stroke-width="0.3" x1="26.63291911575756" x2="22.317208475507996" y1="142.92168965132927" y2="145.44649492493687" /><path d="M 25.769776987707644 143.4266507060508 a86.0,86.0 0 0,1 -11.730757126820373,-40.83630448921669" fill="none" id="id57" stroke="none" /><text fill="#e1ed5e" style="font-size:6.75px; font-family:Arial;" text-anchor="middle"><textPath startOffset="21.46611528233685" xlink:href="#id57">September</textPath></text><line stroke="#e1ed5e" stroke-width="0.3" x1="15.007084014347285" x2="10.007500721073583" y1="101.09737516637583" y2="101.16192664675087" /><path d="M 14.007167355692545 101.11028546245083 a86.0,86.0 0 0,1 10.666146001902534,-42.60595125391555" fill="none" id="id58" stroke="none" /><text fill="#e1ed5e" style="font-size:6.75px; font-family:Arial;" text-anchor="middle"><textPath startOffset="22.20632615414155" xlink:href="#id58">October</textPath></text><line stroke="#e1ed5e" stroke-width="0.3" x1="26.266209847984243" x2="21.928928074336255" y1="57.711370442889674" y2="55.22380399835377" /><path d="M 25.398753493254645 57.213857153982495 a86.0,86.0 0 0,1 29.58750427330803,-30.492523968695096" fill="none" id="id59" stroke="none" /><text fill="#e1ed5e" style="font-size:6.75px; font-family:Arial;" text-anchor="middle"><textPath startOffset="21.46611528233685" xlink:href="#id59">November</textPath></text><line stroke="#e1ed5e" stroke-width="0.3" x1="56.762969772571076" x2="54.21961505331055" y1="26.818313649435495" y2="22.513508569990535" /><path d="M 56.25429882871897 25.957352633546506 a86.0,86.0 0 0,1 42.265352541879196,-11.944610805530505" fill="none" id="id60" stroke="none" /><text fill="#e1ed5e" style="font-size:6.75px; font-family:Arial;" text-anchor="middle"><textPath startOffset="22.20632615414155" xlink:href="#id60">December</textPath></text></svg>